<?xml version="1.0" encoding="UTF-8" standalone="no"?>
<!-- Created with Inkscape (http://www.inkscape.org/) -->

<svg
   xmlns:dc="http://purl.org/dc/elements/1.1/"
   xmlns:cc="http://creativecommons.org/ns#"
   xmlns:rdf="http://www.w3.org/1999/02/22-rdf-syntax-ns#"
   xmlns:svg="http://www.w3.org/2000/svg"
   xmlns="http://www.w3.org/2000/svg"
   xmlns:xlink="http://www.w3.org/1999/xlink"
   xmlns:sodipodi="http://sodipodi.sourceforge.net/DTD/sodipodi-0.dtd"
   xmlns:inkscape="http://www.inkscape.org/namespaces/inkscape"
   width="210mm"
   height="297mm"
   viewBox="0 0 210 297"
   version="1.1"
   id="svg8"
   inkscape:version="0.92.5 (2060ec1f9f, 2020-04-08)"
   sodipodi:docname="MayhemLogo.svg"
   inkscape:export-filename="/home/devin/Documents/CodeAcademy/projects/businessSite/MayhemLogo.png"
   inkscape:export-xdpi="241.64"
   inkscape:export-ydpi="241.64">
  <defs
     id="defs2" />
  <sodipodi:namedview
     id="base"
     pagecolor="#ffffff"
     bordercolor="#666666"
     borderopacity="1.0"
     inkscape:pageopacity="0.0"
     inkscape:pageshadow="2"
     inkscape:zoom="0.98994949"
     inkscape:cx="293.19436"
     inkscape:cy="761.85104"
     inkscape:document-units="mm"
     inkscape:current-layer="layer1"
     showgrid="false"
     inkscape:window-width="1862"
     inkscape:window-height="1016"
     inkscape:window-x="1920"
     inkscape:window-y="27"
     inkscape:window-maximized="1" />
  <metadata
     id="metadata5">
    <rdf:RDF>
      <cc:Work
         rdf:about="">
        <dc:format>image/svg+xml</dc:format>
        <dc:type
           rdf:resource="http://purl.org/dc/dcmitype/StillImage" />
        <dc:title></dc:title>
      </cc:Work>
    </rdf:RDF>
  </metadata>
  <g
     inkscape:label="Layer 1"
     inkscape:groupmode="layer"
     id="layer1">
    <circle
       style="fill:none;fill-opacity:1;stroke:none;stroke-width:0.20478724;stroke-miterlimit:4;stroke-dasharray:none;stroke-opacity:1"
       id="path819"
       cx="-101.73782"
       cy="-93.917297"
       r="51.449383"
       transform="rotate(177.95249)"
       inkscape:export-xdpi="241.64"
       inkscape:export-ydpi="241.64" />
    <flowRoot
       xml:space="preserve"
       id="flowRoot824"
       style="fill:black;fill-opacity:1;stroke:none;font-family:sans-serif;font-style:normal;font-weight:normal;font-size:40px;line-height:1.25;letter-spacing:0px;word-spacing:0px"><flowRegion
         id="flowRegion826"><rect
           id="rect828"
           width="593.96973"
           height="559.62451"
           x="78.791901"
           y="57.818901" /></flowRegion><flowPara
         id="flowPara830" /></flowRoot>    <g
       id="g1385"
       inkscape:label="Gear77"
       transform="translate(104.45961,90.371314)"
       inkscape:export-xdpi="241.64"
       inkscape:export-ydpi="241.64"
       style="fill:#c9c9c9;fill-opacity:0.99607843">
      <path
         id="path1383"
         style="fill:#c9c9c9;stroke:#000000;stroke-width:0.26458332;fill-opacity:0.99607843"
         d="m 63.13838,-1.8205 1.69713,0.49768 1.6945,0.6513 v 1.34304 l -1.6945,0.6513 -1.69713,0.49768 -0.0617,1.51142 1.65092,0.63435 1.63577,0.78726 -0.10947,1.33857 -1.74194,0.51102 -1.73206,0.35769 -0.18469,1.50136 1.59373,0.76681 1.56616,0.91796 -0.21822,1.3252 -1.7778,0.36733 -1.75544,0.21532 -0.30645,1.48131 1.52592,0.89416 1.48612,1.04257 -0.3255,1.303 -1.80183,0.2212 -1.76715,0.07152 -0.42617,1.45141 1.44796,1.01556 1.3962,1.16023 -0.43063,1.27213 -1.81386,0.0736 -1.7671,-0.07276 -0.54306,1.41184 1.36037,1.13021 1.29698,1.27017 -0.53288,1.2328 -1.81383,-0.07449 -1.75529,-0.21655 -0.65633,1.36287 1.26372,1.23733 1.18914,1.37166 -0.6316,1.18527 -1.80172,-0.22209 -1.7318,-0.3589 -0.76523,1.30484 1.15866,1.33621 1.07338,1.46403 -0.72611,1.12984 -1.77762,-0.3682 -1.69678,-0.49887 -0.86904,1.23813 1.04589,1.42621 0.95047,1.54664 -0.81578,1.06689 -1.74169,-0.51186 -1.65048,-0.63552 -0.96707,1.16318 0.92616,1.50671 0.82125,1.61897 -0.90003,0.99685 -1.69418,-0.65213 -1.59318,-0.76793 -1.05866,1.08048 0.80026,1.57719 0.68656,1.68052 -0.97829,0.92018 -1.63538,-0.78805 -1.52529,-0.89524 -1.14321,0.9906 0.66905,1.63717 0.54729,1.73089 -1.05003,0.83737 -1.56571,-0.91873 -1.44725,-1.01658 -1.22015,0.89412 0.53338,1.68626 0.40439,1.76974 -1.11479,0.749 -1.48562,-1.04329 -1.35957,-1.13116 -1.28896,0.79168 0.39415,1.72413 0.25879,1.79681 -1.17213,0.65564 -1.39563,-1.16091 -1.26285,-1.23822 -1.3492,0.684 0.25231,1.75051 0.11147,1.81192 -1.22167,0.55792 -1.29637,-1.2708 -1.15772,-1.33703 -1.40046,0.57174 0.10879,1.76526 -0.03659,1.81498 -1.26308,0.45649 -1.18847,-1.37224 -1.04489,-1.42695 -1.44241,0.45569 -0.03545,1.76825 -0.18441,1.80596 -1.29609,0.35201 -1.07266,-1.46454 -0.9251,-1.50737 -1.47475,0.33661 -0.17947,1.75947 -0.33099,1.78492 -1.32047,0.2452 L 10.53642,63.98732 9.73726,62.40957 8.23998,62.62485 7.9177,64.36384 7.44232,66.11584 6.10625,66.2526 5.2858,64.63323 4.6179,62.99559 3.10805,63.0881 2.6451,64.79504 2.0285,66.50247 0.68573,66.52986 0,64.84901 l -0.53219,-1.68663 -1.51237,-0.03086 -0.60054,1.66352 -0.75372,1.65149 -1.34053,-0.08215 -0.54645,-1.73115 -0.39294,-1.7244 -1.50482,-0.15403 -0.73414,1.60904 -0.88582,1.58456 -1.32937,-0.19114 -0.40353,-1.76994 -0.25108,-1.75068 -1.48725,-0.27617 -0.86285,1.54384 -1.01203,1.50708 -1.30937,-0.29886 -0.25792,-1.79693 -0.10755,-1.76533 -1.45979,-0.39648 -0.98582,1.46838 -1.1315,1.41957 -1.28066,-0.40458 -0.11059,-1.81198 0.0367,-1.76823 -1.42262,-0.51414 -1.10222,1.38314 -1.24345,1.32262 -1.24342,-0.50762 0.03748,-1.81497 0.1807,-1.75935 -1.37598,-0.62839 -1.21129,1.2887 -1.34712,1.21687 -1.1979,-0.60729 0.18528,-1.80587 0.32351,-1.73876 -1.32018,-0.73846 -1.3123,1.18568 -1.44183,1.10301 -1.14441,-0.7029 0.33186,-1.78476 0.46415,-1.70661 -1.2556,-0.84361 -1.40457,1.07477 -1.52694,0.98182 -1.08331,-0.79384 0.47623,-1.75178 0.60172,-1.66309 -1.18266,-0.94314 -1.48751,0.9567 -1.60188,0.8541 -1.015,-0.87951 0.61743,-1.70712 0.73527,-1.60852 -1.10185,-1.0364 -1.56053,0.83227 -1.66617,0.72069 -0.93994,-0.95931 0.75453,-1.65112 0.86393,-1.54323 -1.01371,-1.12277 -1.62318,0.70231 -1.71937,0.58248 -0.85861,-1.03273 0.88659,-1.58412 0.98685,-1.46769 -0.91882,-1.20165 -1.67503,0.56767 -1.76112,0.4404 -0.77158,-1.09929 1.01277,-1.50658 1.10319,-1.38236 -0.81782,-1.27255 -1.71572,0.42924 -1.79116,0.29539 -0.67941,-1.15851 1.1322,-1.41903 1.21219,-1.28784 -0.71137,-1.33497 -1.745,0.28797 -1.80927,0.14841 -0.58273,-1.21004 1.2441,-1.32202 1.31313,-1.18475 -0.60019,-1.38851 -1.76267,0.14478 -1.81535,4.4e-4 -0.48215,-1.25351 1.34771,-1.21622 1.40533,-1.07377 -0.48502,-1.43282 -1.7686,6.3e-4 -1.80935,-0.14753 -0.37838,-1.28864 1.44237,-1.10232 1.48818,-0.95565 -0.36662,-1.46758 -1.76277,-0.14354 -1.7913,-0.29451 -0.27208,-1.3152 1.52741,-0.98108 1.56112,-0.83117 -0.24578,-1.49258 -1.7452,-0.28674 -1.76134,-0.43955 -0.16397,-1.33299 1.60229,-0.85332 1.62368,-0.70116 -0.1233,-1.50765 -1.71602,-0.42804 -1.71965,-0.58164 -0.05478,-1.34193 1.66652,-0.71988 1.67542,-0.56648 v -1.51268 l -1.67542,-0.56648 -1.66652,-0.71988 0.05478,-1.34193 1.71965,-0.58164 1.71602,-0.42804 0.1233,-1.50765 -1.62368,-0.70116 -1.60229,-0.85332 0.16397,-1.33299 1.76134,-0.43955 1.7452,-0.28674 0.24578,-1.49258 -1.56112,-0.83117 -1.52741,-0.98108 0.27208,-1.3152 1.7913,-0.29451 1.76277,-0.14354 0.36662,-1.46758 -1.48818,-0.95565 -1.44237,-1.10232 0.37838,-1.28864 1.80935,-0.14753 1.7686,6.3e-4 0.48502,-1.43282 -1.40533,-1.07377 -1.34771,-1.21622 0.48215,-1.25351 1.81535,4.4e-4 1.76267,0.14478 0.60019,-1.38851 -1.31313,-1.18475 -1.2441,-1.32202 0.58273,-1.21004 1.80927,0.14841 1.745,0.28797 0.71137,-1.33497 -1.21219,-1.28784 -1.1322,-1.41903 0.67941,-1.15851 1.79116,0.29539 1.71572,0.42924 0.81782,-1.27255 -1.10319,-1.38236 -1.01277,-1.50658 0.77158,-1.09929 1.76112,0.4404 1.67503,0.56767 0.91882,-1.20165 -0.98685,-1.46769 -0.88659,-1.58412 0.85861,-1.03273 1.71937,0.58248 1.62318,0.70231 1.01371,-1.12277 -0.86393,-1.54323 -0.75453,-1.65112 0.93994,-0.95931 1.66617,0.72069 1.56053,0.83227 1.10185,-1.0364 -0.73527,-1.60852 -0.61743,-1.70712 1.015,-0.87951 1.60188,0.8541 1.48751,0.9567 1.18266,-0.94314 -0.60172,-1.66309 -0.47623,-1.75178 1.08331,-0.79384 1.52694,0.98182 1.40457,1.07477 1.2556,-0.84361 -0.46415,-1.70661 -0.33186,-1.78476 1.14441,-0.7029 1.44183,1.10301 1.3123,1.18568 1.32018,-0.73846 -0.32351,-1.73876 -0.18528,-1.80587 1.1979,-0.60729 1.34712,1.21687 1.21129,1.2887 1.37598,-0.62839 -0.1807,-1.75935 -0.03748,-1.81497 1.24342,-0.50762 1.24345,1.32262 1.10222,1.38314 1.42262,-0.51414 -0.0367,-1.76823 0.11059,-1.81198 1.28066,-0.40458 1.1315,1.41957 0.98582,1.46838 1.45979,-0.39648 0.10755,-1.76533 0.25792,-1.79693 1.30937,-0.29886 1.01203,1.50708 0.86285,1.54384 1.48725,-0.27617 0.25108,-1.75068 0.40353,-1.76994 1.32937,-0.19114 0.88582,1.58456 0.73414,1.60904 1.50482,-0.15403 0.39294,-1.7244 0.54645,-1.73115 1.34053,-0.08215 0.75372,1.65149 0.60054,1.66352 1.51237,-0.03086 L 0,-64.84901 l 0.68573,-1.68085 1.34277,0.02739 0.6166,1.70743 0.46295,1.70694 1.50985,0.09251 0.6679,-1.63764 0.82045,-1.61937 1.33607,0.13676 0.47538,1.752 0.32228,1.73899 1.49728,0.21528 0.79916,-1.57775 0.94972,-1.54711 1.32047,0.2452 0.33099,1.78492 0.17947,1.75947 1.47475,0.33661 0.9251,-1.50737 1.07266,-1.46454 1.29609,0.35201 0.18441,1.80596 0.03545,1.76825 1.44241,0.45569 1.04489,-1.42695 1.18847,-1.37224 1.26308,0.45649 0.03659,1.81498 -0.10879,1.76526 1.40046,0.57174 1.15772,-1.33703 1.29637,-1.2708 1.22167,0.55792 -0.11147,1.81192 -0.25231,1.75051 1.3492,0.684 1.26285,-1.23822 1.39563,-1.16091 1.17213,0.65564 -0.25879,1.79681 -0.39415,1.72413 1.28896,0.79168 1.35957,-1.13116 1.48562,-1.04329 1.11479,0.749 -0.40439,1.76974 -0.53338,1.68626 1.22015,0.89412 1.44725,-1.01658 1.56571,-0.91873 1.05003,0.83737 -0.54729,1.73089 -0.66905,1.63717 1.14321,0.9906 1.52529,-0.89524 1.63538,-0.78805 0.97829,0.92018 -0.68656,1.68052 -0.80026,1.57719 1.05866,1.08048 1.59318,-0.76793 1.69418,-0.65213 0.90003,0.99685 -0.82125,1.61897 -0.92616,1.50671 0.96707,1.16318 1.65048,-0.63552 1.74169,-0.51186 0.81578,1.06689 -0.95047,1.54664 -1.04589,1.42621 0.86904,1.23813 1.69678,-0.49887 1.77762,-0.3682 0.72611,1.12984 -1.07338,1.46403 -1.15866,1.33621 0.76523,1.30484 1.7318,-0.3589 1.80172,-0.22209 0.6316,1.18527 -1.18914,1.37166 -1.26372,1.23733 0.65633,1.36287 1.75529,-0.21655 1.81383,-0.07449 0.53288,1.2328 -1.29698,1.27017 -1.36037,1.13021 0.54306,1.41184 1.7671,-0.07276 1.81386,0.0736 0.43063,1.27213 -1.3962,1.16023 -1.44796,1.01556 0.42617,1.45141 1.76715,0.07152 1.80183,0.2212 0.3255,1.303 -1.48612,1.04257 -1.52592,0.89416 0.30645,1.48131 1.75544,0.21532 1.7778,0.36733 0.21822,1.3252 -1.56616,0.91796 -1.59373,0.76681 0.18469,1.50136 1.73206,0.35769 1.74194,0.51102 0.10947,1.33857 -1.63577,0.78726 -1.65092,0.63435 z"
         inkscape:connector-curvature="0" />
    </g>
    <circle
       style="fill:#000000;fill-opacity:0.99607843;stroke:none;stroke-width:0.20489995;stroke-miterlimit:4;stroke-dasharray:none;stroke-opacity:1"
       id="path1399"
       cx="104.65685"
       cy="90.645111"
       r="61.469982"
       inkscape:export-xdpi="241.64"
       inkscape:export-ydpi="241.64" />
    <circle
       style="fill:none;fill-opacity:1;stroke:#0a0000;stroke-width:0.2469314;stroke-miterlimit:4;stroke-dasharray:none;stroke-opacity:1"
       id="path1401"
       cx="105.13364"
       cy="90.481239"
       r="45.703091"
       inkscape:export-xdpi="241.64"
       inkscape:export-ydpi="241.64" />
    <text
       xml:space="preserve"
       style="font-style:normal;font-variant:normal;font-weight:normal;font-stretch:normal;font-size:10.58333302px;line-height:1.25;font-family:Ani;-inkscape-font-specification:Ani;letter-spacing:0px;word-spacing:0px;fill:#fffffb;fill-opacity:0.99607843;stroke:#fffff9;stroke-width:0.26458332;stroke-opacity:1;"
       id="text817"
       transform="rotate(-0.33867385,104.42675,65.634465)"
       inkscape:export-xdpi="241.64"
       inkscape:export-ydpi="241.64"><textPath
         xlink:href="#path819"
         id="textPath821"><tspan
   style="font-style:normal;font-variant:normal;font-weight:normal;font-stretch:normal;font-family:cmmi10;-inkscape-font-specification:cmmi10;stroke-width:0.26458332;fill:#fffffb;fill-opacity:0.99607843;stroke:#fffff9;stroke-opacity:1;"
   id="tspan815">Dr Mayhems Mad  Scientist  Supply           Co</tspan></textPath></text>
  </g>
</svg>
